# xmcd
#
# Track frame offsets:
#	300
#	18712
#	40562
#	60955
#	77120
#	96298
#	113636
#	130055
#	148608
#	166612
#	186568
#	203230
#	219071
#	232965
#	252680
#
# Disc length: 3731 seconds
#
# Revision: 1
# Processed by: cddbd v1.5.2PL0 Copyright (c) Steve Scherf et al.
# Submitted via: audiograbber 1.83.01
#
DISCID=c80e8f0f
DTITLE=Various Artist - sc8982
DYEAR=1900
DGENRE=country
TTITLE0=josh turner - would you go with me
TTITLE1=garth brooks and trisha yearwood - love will always win
TTITLE2=keith urban - tonight I wanna cry
TTITLE3=trace adkins - swing
TTITLE4=brad paisley - the world
TTITLE5=rascal flatts - me and my gang
TTITLE6=julie roberts - men and mascara
TTITLE7=miranda lambert - new strings
TTITLE8=alison krauss - if I didn't know any better
TTITLE9=tim mcgraw - i got friends that do
TTITLE10=the wreckers - leave the pieces
TTITLE11=toby keith - hell no
TTITLE12=gretchen wilson - california girls
TTITLE13=toby keith - a little too late
TTITLE14=martina mcbride - 'til i can make it on my own
EXTD=
EXTT0=
EXTT1=
EXTT2=
EXTT3=
EXTT4=
EXTT5=
EXTT6=
EXTT7=
EXTT8=
EXTT9=
EXTT10=
EXTT11=
EXTT12=
EXTT13=
EXTT14=
PLAYORDER=
